<svg id="icon-public-on" xmlns="http://www.w3.org/2000/svg" width="60" height="60" viewBox="0 0 60 60">
  <g id="fill" transform="translate(17 1)">
    <path id="Path_1016" data-name="Path 1016" d="M105.023,590.4a2.026,2.026,0,0,1-2,2h-22a2,2,0,0,1,0-4h22a2.005,2.005,0,0,1,2,2Zm0,0" transform="translate(-79.024 -565.4)" fill="#ffc85a"/>
    <path id="Path_1017" data-name="Path 1017" d="M104.223,580.2v1h-22v-1a11,11,0,1,1,22,0Zm0,0" transform="translate(-80.224 -558.2)" fill="#ffeaad"/>
    <path id="Path_1018" data-name="Path 1018" d="M103.744,594.8v9.36l-10.26-4.21a1.9,1.9,0,0,0-1.48,0l-10.26,4.21V594.8Zm0,0" transform="translate(-80.044 -567.8)" fill="#ffeaad"/>
    <path id="Path_1024" data-name="Path 1024" d="M99.824,551.6h7a1,1,0,0,1,1,1v4a1,1,0,0,1-1,1h-7Zm0,0" transform="translate(-86.824 -551.6)" fill="#ff8170"/>
  </g>
  <path id="Path_1027" data-name="Path 1027" d="M57.024,624.6a1,1,0,1,1-1-1,1,1,0,0,1,1,1Zm0,0" transform="translate(-53.024 -577.6)" fill="#5a6a87" opacity="0"/>
  <path id="Path_1028" data-name="Path 1028" d="M109.823,588h-12.8l-3.2-1.313v-7.877a3.04,3.04,0,0,0,2-2.81,3.007,3.007,0,0,0-2-2.829V573a12.009,12.009,0,0,0-11-11.949V558h6a2,2,0,0,0,2-2v-4a2,2,0,0,0-2-2h-7a1,1,0,0,0-1,1v10.051a12.009,12.009,0,0,0-11,11.949v.179a3.049,3.049,0,0,0-2,2.821,3,3,0,0,0,2,2.816v7.871L66.623,588h-12.8a2,2,0,0,0-2,2v2a2,2,0,0,0,2,2h13v14h-10a1,1,0,0,1-1-1v-6a1,1,0,0,0-2,0v6a3,3,0,0,0,3,3h50a3,3,0,0,0,3-3V594a2,2,0,0,0,2-2v-2a2,2,0,0,0-2-2Zm-21-32h-6v-4h6Zm-7,7a10.011,10.011,0,0,1,10,10h-20a10.01,10.01,0,0,1,10-10Zm-11,12h22a1,1,0,0,1,1,1,1.027,1.027,0,0,1-1,1h-22a1,1,0,0,1-1-1,1.026,1.026,0,0,1,1-1Zm1,4h20v6.866l-8.878-3.645a2.947,2.947,0,0,0-2.245,0l-8.877,3.645Zm-3,14.651,12.583-5.566a1.064,1.064,0,0,1,.824,0l12.592,5.566V608h-6V596a2,2,0,0,0-2-2h-10a2,2,0,0,0-2,2v12h-6Zm8,2.348h4v12h-4Zm6,12V596h4v12Zm25-1a1,1,0,0,1-1,1h-10V594h11Zm2-15H96.035l-13-5.752a3.071,3.071,0,0,0-2.423.005l-13,5.747H53.824v-2h13a.989.989,0,0,0,.38-.075l4-1.64.025-.011,10.236-4.2a.954.954,0,0,1,.726,0l10.236,4.2.026.011,3.995,1.64a1,1,0,0,0,.376.075h13Zm0,0" transform="translate(-51.824 -550)" fill="#5a6a87" opacity="0"/>
</svg>
