<svg xmlns="http://www.w3.org/2000/svg" width="60" height="60" viewBox="0 0 60 60">
  <g id="icon-Environmental" transform="translate(0 0)">
    <g id="out">
      <path id="Path_946" data-name="Path 946" d="M725.425,528.486a4.992,4.992,0,0,0-5.149-1.093,5.572,5.572,0,0,0-3.69,5.237V534.5a4.575,4.575,0,0,0,8.587,2.2l1.191-2.17a5.023,5.023,0,0,0-.938-6.046ZM724.3,533.4l-1.19,2.17a2.217,2.217,0,0,1-4.161-1.066V532.63a3.209,3.209,0,0,1,2.125-3.017,2.689,2.689,0,0,1,.9-.156A2.661,2.661,0,0,1,724.3,533.4Zm0,0" transform="translate(-693.366 -493.17)" fill="#5a6a87"/>
      <path id="Path_947" data-name="Path 947" d="M764.348,568.229l-3.292,3.293a1.179,1.179,0,0,0,1.667,1.667l3.293-3.293a1.179,1.179,0,0,0-1.668-1.667Zm0,0" transform="translate(-715.427 -513.538)" fill="#5a6a87"/>
      <path id="Path_948" data-name="Path 948" d="M728.66,488.363a4.006,4.006,0,0,0-6.586,3.068v2.3a24.282,24.282,0,0,0-5.95-7.991l2.08-2.641a6.869,6.869,0,0,0,3.211.794,6.948,6.948,0,0,0,6.833-5.869,5.581,5.581,0,1,0-7.88-7.884,6.912,6.912,0,0,0-4.023,11.532l-2.05,2.6a24.182,24.182,0,0,0-13.036-4.578v-3.254a7.048,7.048,0,1,0,5.818-12.771,7.686,7.686,0,0,0-13.981,0,7.048,7.048,0,1,0,5.818,12.771V479.7a24.181,24.181,0,0,0-13.036,4.578l-2.049-2.6a6.912,6.912,0,0,0-4.024-11.532,5.581,5.581,0,1,0-7.88,7.885,6.948,6.948,0,0,0,6.834,5.869,6.869,6.869,0,0,0,3.211-.794l2.08,2.641a24.267,24.267,0,0,0-5.95,7.991v-2.3a4.007,4.007,0,1,0-8.014,0V498.1a19.3,19.3,0,0,0,5.686,13.734l7,7.006a1.172,1.172,0,0,0,1.657-1.658l-7-7.005a16.973,16.973,0,0,1-5-12.077v-6.666a1.663,1.663,0,1,1,3.327,0v7.444a8.9,8.9,0,0,0,2.622,6.335l6.829,6.832a1.173,1.173,0,0,0,1.658-1.659l-6.649-6.652a2,2,0,0,1,2.827-2.829l5.329,5.331a1.171,1.171,0,0,0,.829.343,8.444,8.444,0,0,1,6.01,2.491,12.57,12.57,0,0,1,3.7,8.944,1.172,1.172,0,1,0,2.344,0,12.568,12.568,0,0,1,3.7-8.944,8.442,8.442,0,0,1,6.01-2.491,1.17,1.17,0,0,0,.829-.343l5.329-5.331a2,2,0,0,1,2.828,2.829l-6.649,6.652a1.172,1.172,0,1,0,1.657,1.659l6.829-6.832a8.9,8.9,0,0,0,2.622-6.335v-7.444a1.663,1.663,0,1,1,3.326,0V498.1a17.141,17.141,0,0,1-2.051,8.118,1.172,1.172,0,1,0,2.062,1.115,19.5,19.5,0,0,0,2.333-9.232v-6.666a4,4,0,0,0-1.427-3.068Zm-7.6-15.94a1.176,1.176,0,0,0,.849-.467,3.236,3.236,0,1,1,4.528,4.53,1.174,1.174,0,0,0-.467.85,4.569,4.569,0,1,1-4.91-4.913ZM690.7,470.335a4.692,4.692,0,0,1,3.553-4.56,1.173,1.173,0,0,0,.816-.736,5.343,5.343,0,0,1,10.039,0,1.173,1.173,0,0,0,.816.736,4.7,4.7,0,1,1-4.438,7.914l2.121-2.123a1.172,1.172,0,1,0-1.657-1.658l-.69.69v-3.944a1.172,1.172,0,1,0-2.344,0v5.127l-1.867-1.868a1.172,1.172,0,0,0-1.657,1.658l2.65,2.652a4.658,4.658,0,0,1-2.644.814,4.706,4.706,0,0,1-4.7-4.7Zm-16.495,7a1.178,1.178,0,0,0-.467-.85,3.237,3.237,0,1,1,4.528-4.53,1.169,1.169,0,0,0,.849.467,4.572,4.572,0,1,1-4.91,4.913Zm4.547,21.726a21.689,21.689,0,0,1,3.841-8.273h3.382a2.894,2.894,0,0,1,1.722,5.219,6.939,6.939,0,0,0-2.537,3.693l-.458-.458a4.347,4.347,0,0,0-5.95-.181Zm31.725,5.18a10.762,10.762,0,0,0-7.172,3.166,14.968,14.968,0,0,0-3.218,4.772,14.979,14.979,0,0,0-3.218-4.772,10.762,10.762,0,0,0-7.171-3.166l-2.456-2.457v-.219a4.591,4.591,0,0,1,1.849-3.673,5.239,5.239,0,0,0-3.116-9.448h-1.343a21.765,21.765,0,0,1,26.708-3.289,8.205,8.205,0,0,0-2.085,14.753l2.437,1.571a3.328,3.328,0,0,1,.809.736Zm5-5-1.307,1.308a5.682,5.682,0,0,0-1.2-1.042l-2.437-1.571a5.861,5.861,0,0,1,3.172-10.785h.437a21.85,21.85,0,0,1,7.289,11.909,4.348,4.348,0,0,0-5.951.181Zm0,0" transform="translate(-670.087 -459.183)" fill="#5a6a87"/>
      <path id="Path_949" data-name="Path 949" d="M775.894,560.427a1.178,1.178,0,1,0,.833.345,1.188,1.188,0,0,0-.833-.345Zm0,0" transform="translate(-722.447 -509.831)" fill="#5a6a87"/>
    </g>
  </g>
</svg>
