<svg id="icon-education" xmlns="http://www.w3.org/2000/svg" width="60" height="60" viewBox="0 0 60 60">
  <path id="Path_1035" data-name="Path 1035" d="M220.875,563.372h14.258a.966.966,0,0,0,0-1.932H220.875a.966.966,0,0,0,0,1.932Zm.579,0" transform="translate(-199.914 -554.29)" fill="#5a6a87"/>
  <path id="Path_1036" data-name="Path 1036" d="M247.912,572.222a15.052,15.052,0,0,0-13.971-15.072v-6.184a.908.908,0,0,0-.957-.966H194.514a6.628,6.628,0,0,0-6.6,6.57v46.86a6.545,6.545,0,0,0,6.506,6.57H232.89a4.966,4.966,0,0,0,4.976-5.024c0-.387,0,0-1.436-14.107a2.942,2.942,0,0,0,1.914-2.706v-2.125a14.562,14.562,0,0,0,9.569-13.817ZM232.028,557.15a15.1,15.1,0,0,0-10.047,4.831H205.524a.966.966,0,0,0,0,1.932h15.022a29.312,29.312,0,0,0-1.531,2.994H205.524a.966.966,0,0,0,0,1.932h12.917a15.083,15.083,0,0,0-.382,3h-9.186a.966.966,0,0,0,0,1.932h9.281a15.066,15.066,0,0,0,9.377,12.464v2.126a2.812,2.812,0,0,0,1.914,2.7l-.669,5.8H201.211V551.932h30.817Zm3.541,32.077H230.4a.963.963,0,0,1-.957-.966v-1.449a14.626,14.626,0,0,0,7.081,0v1.449a.963.963,0,0,1-.957.966ZM190.405,556.57A4.7,4.7,0,0,1,195,551.836h4.784v44.928H195a6.478,6.478,0,0,0-4.593,1.932Zm-.579,46.957a4.616,4.616,0,0,1,4.593-4.638h34.069l-.383,3.672H200.16a.964.964,0,0,0-.957.966.909.909,0,0,0,.957.966h27.754a4.938,4.938,0,0,0,1.053,3.767H194.514a4.848,4.848,0,0,1-4.688-4.734Zm43.159,4.638a3.044,3.044,0,0,1-2.3-1.063,3.2,3.2,0,0,1-.766-2.415l1.435-13.527h3.349c1.053,10.725,1.436,13.72,1.436,13.913a3.181,3.181,0,0,1-3.158,3.093Zm0-22.8A13.141,13.141,0,1,1,246,572.222a13.091,13.091,0,0,1-13.014,13.141Zm0,0" transform="translate(-187.912 -550)" fill="#5a6a87"/>
  <path id="Path_1037" data-name="Path 1037" d="M253.426,567.778a11.111,11.111,0,1,0,11,11.111,11.122,11.122,0,0,0-11-11.111Zm0,20.289a9.179,9.179,0,1,1,9.09-9.179,9.193,9.193,0,0,1-9.09,9.179Zm0,0" transform="translate(-208.354 -556.667)" fill="#5a6a87"/>
</svg>
