<svg xmlns="http://www.w3.org/2000/svg" width="60" height="60" viewBox="0 0 60 60">
  <g id="icon-Sightseeing" transform="translate(0 0)">
    <g id="out">
      <path id="Path_1073" data-name="Path 1073" d="M699.067,555.481a15.791,15.791,0,0,0-23.569,0,16.022,16.022,0,0,0-1.131,19.642l10.8,15.9a2.561,2.561,0,0,0,4.234,0l10.8-15.9a16.023,16.023,0,0,0-1.133-19.642Zm-.47,18.555-10.8,15.893a.623.623,0,0,1-1.031,0l-10.8-15.893a14.089,14.089,0,0,1,.981-17.27,13.851,13.851,0,0,1,20.669,0,14.091,14.091,0,0,1,.98,17.27Zm0,0" transform="translate(-643.026 -550.201)" fill="#5a6a87"/>
      <path id="Path_1074" data-name="Path 1074" d="M689.522,556.053a11.952,11.952,0,1,0,11.953,11.953,11.967,11.967,0,0,0-11.953-11.953Zm2.363,10.093.777.949h-6.839v-3.712h6.839l-.777.949a1.441,1.441,0,0,0,0,1.813Zm-6.062,11.168v-8.282h7.9a1.433,1.433,0,0,0,1.111-2.339l-1.186-1.455,1.186-1.452a1.433,1.433,0,0,0-1.111-2.339h-8.858a.967.967,0,0,0-.978.968v13.865a10,10,0,1,1,1.937,1.034Zm0,0" transform="translate(-645.264 -552.373)" fill="#5a6a87"/>
      <path id="Path_1077" data-name="Path 1077" d="M650.575,573.848H649.04V559.725a2.2,2.2,0,0,0-2.2-2.194h-1.386v-.721a1.411,1.411,0,0,0-1.412-1.408h-6.768a1.411,1.411,0,0,0-1.413,1.408v.721h-1.386a2.2,2.2,0,0,0-2.2,2.194v14.123h-1.536a5.087,5.087,0,0,0-5.085,5.079v23.165a5.082,5.082,0,0,0,3.186,4.709,4.444,4.444,0,1,0,8.768.37h6.091a4.444,4.444,0,1,0,8.768-.37,5.082,5.082,0,0,0,3.186-4.709V578.927a5.088,5.088,0,0,0-5.085-5.079ZM637.8,557.336h5.723v2.314H637.8v-2.314Zm-3.582,2.39a.259.259,0,0,1,.261-.261h1.387v.71a1.413,1.413,0,0,0,1.412,1.408h6.769a1.413,1.413,0,0,0,1.412-1.408v-.71h1.385a.259.259,0,0,1,.261.261v14.123H634.216ZM633.2,610.2a2.507,2.507,0,0,1-2.453-3.027h4.908A2.508,2.508,0,0,1,633.2,610.2Zm.8-4.96V587.976a1.052,1.052,0,0,1,1.049-1.052h11.214a1.052,1.052,0,0,1,1.05,1.052v17.262Zm14.114,4.96a2.509,2.509,0,0,1-2.453-3.027h4.909a2.509,2.509,0,0,1-2.455,3.027Zm5.607-8.106a3.15,3.15,0,0,1-3.149,3.146h-1.323V587.976a2.989,2.989,0,0,0-2.985-2.985H635.052a2.987,2.987,0,0,0-2.984,2.985v17.262h-1.324a3.15,3.15,0,0,1-3.149-3.146V578.927a3.151,3.151,0,0,1,3.149-3.146h19.831a3.151,3.151,0,0,1,3.149,3.146Zm0,0" transform="translate(-625.66 -552.132)" fill="#5a6a87"/>
    </g>
  </g>
</svg>
