<svg xmlns="http://www.w3.org/2000/svg" width="60.001" height="60" viewBox="0 0 60.001 60">
  <g id="icon-Construction-on" transform="translate(0 0)">
    <g id="fill" transform="translate(1.172 1.172)">
      <path id="Path_1038" data-name="Path 1038" d="M328.282,627.224a6.24,6.24,0,0,1,0-8.824l14.48-14.48,8.824,8.824-14.48,14.48a6.239,6.239,0,0,1-8.824,0Zm0,0" transform="translate(-326.092 -571.391)" fill="#b8d18c"/>
      <path id="Path_1039" data-name="Path 1039" d="M378.579,583.67l-17.8,17.8-5.861-5.861,17.8-17.8Zm0,0" transform="translate(-336.765 -561.6)" fill="#eff3f3"/>
      <path id="Path_1040" data-name="Path 1040" d="M366.821,560.525l-2.533-2.532,3.021-3.021a10.563,10.563,0,0,1,14.938,0l9.41,9.41-.926,1.7,1.879,1.879,2.074-.548,2.716,2.715a1.833,1.833,0,0,1,0,2.591l-5.663,5.663a1.833,1.833,0,0,1-2.591,0l-2.716-2.716.549-2.074L385.1,571.71l-3.008,2.236-5.862-5.862a3.491,3.491,0,0,0,0-4.937l-2.623-2.623a4.8,4.8,0,0,0-6.788,0Zm0,0" transform="translate(-340.279 -551.876)" fill="#a8b1c1"/>
      <path id="Path_1041" data-name="Path 1041" d="M400.64,626.64a6.24,6.24,0,0,0,0-8.824L385.2,602.375l-8.823,8.823,15.441,15.442a6.24,6.24,0,0,0,8.824,0Zm0,0" transform="translate(-344.812 -570.812)" fill="#ea8686"/>
      <path id="Path_1042" data-name="Path 1042" d="M369.35,601.512l6.161-6.161a1.883,1.883,0,0,1,2.663,0l4.183,4.184-8.823,8.823-4.184-4.183a1.883,1.883,0,0,1,0-2.663Zm0,0" transform="translate(-341.971 -567.971)" fill="#fff"/>
      <path id="Path_1043" data-name="Path 1043" d="M362.39,583.978l-4.411,4.412-21.838-21.838,4.411-4.412Zm0,0" transform="translate(-329.725 -555.724)" fill="#eff3f3"/>
      <path id="Path_1044" data-name="Path 1044" d="M325.875,555,329,551.875l5.713,3.139,1.989,3.276-4.411,4.411-3.276-1.989Zm0,0" transform="translate(-325.875 -551.875)" fill="#a8b1c1"/>
    </g>
    <g id="out" opacity="0">
      <path id="Path_1045" data-name="Path 1045" d="M366.388,581.907h0l-3.2-3.2,4.571-4.571,2.127-1.582.686.686-.377,1.423a1.173,1.173,0,0,0,.305,1.128l2.716,2.716a3,3,0,0,0,4.248,0l5.663-5.663a3,3,0,0,0,0-4.248l-2.715-2.716a1.173,1.173,0,0,0-1.129-.3l-1.422.376-.782-.782.505-.928a1.171,1.171,0,0,0-.2-1.389l-9.41-9.411a11.748,11.748,0,0,0-16.6,0l-3.021,3.021a1.171,1.171,0,0,0,0,1.657l2.532,2.532a1.171,1.171,0,0,0,1.658,0,3.627,3.627,0,0,1,5.13,0l2.623,2.622a2.321,2.321,0,0,1,0,3.279l-6.837,6.837-16.53-16.53-1.916-3.154a1.166,1.166,0,0,0-.437-.419l-5.713-3.139a1.171,1.171,0,0,0-1.393.2l-3.125,3.126a1.171,1.171,0,0,0-.2,1.393l3.139,5.713a1.166,1.166,0,0,0,.419.437l3.156,1.916,16.53,16.53-4.066,4.066-.653-.652a1.172,1.172,0,0,0-1.657,0l-14.48,14.48a7.411,7.411,0,0,0,10.481,10.48l14.48-14.48a1.171,1.171,0,0,0,0-1.657l-.652-.652,1.861-1.86,8.3,8.3a1.172,1.172,0,1,0,1.658-1.657l-4.266-4.267,7.166-7.166L380.172,599A5.068,5.068,0,1,1,373,606.171l-2.889-2.889a1.172,1.172,0,0,0-1.657,1.658l2.889,2.889a7.411,7.411,0,0,0,10.48-10.481Zm-13.008,4.639a.711.711,0,0,1,0-1.006l.874-.874,4.412-4.412.874-.874a.711.711,0,0,1,1.005,0l3.355,3.355-7.166,7.166ZM333.245,562,336,559.245l20.182,20.182-2.755,2.754Zm26.085-3.006a5.983,5.983,0,0,0-7.535-.747l-.956-.956,2.193-2.193a9.4,9.4,0,0,1,13.28,0l8.791,8.79-.506.927a1.171,1.171,0,0,0,.2,1.39l1.878,1.879a1.174,1.174,0,0,0,1.128.3l1.423-.376,2.239,2.24a.659.659,0,0,1,0,.932l-5.663,5.663a.658.658,0,0,1-.933,0l-2.239-2.239.376-1.422a1.173,1.173,0,0,0-.3-1.129l-1.878-1.878a1.171,1.171,0,0,0-1.528-.112l-2.2,1.633-4.424-4.423a4.668,4.668,0,0,0-.723-5.659Zm1.794,10.045,2.1,2.1,2.1,2.1-3.911,3.911a3.057,3.057,0,0,0-3.534.569l-.046.046-2.723-2.723Zm-34.5-14.533,1.881-1.881,4.667,2.565,1.349,2.222-3.111,3.111-2.221-1.349Zm8.734,51.672a5.067,5.067,0,0,1-7.166-7.166l13.651-13.651.651.651h0l5.863,5.863.653.652Zm9.623-20.993,4.066-4.067,2.723,2.723-.046.046a3.059,3.059,0,0,0-.568,3.533l-1.971,1.97Zm0,0" transform="translate(-324 -550)" fill="#5a6a87"/>
      <path id="Path_1046" data-name="Path 1046" d="M389.789,628.734a1.172,1.172,0,1,0,.829.343,1.18,1.18,0,0,0-.829-.343Zm0,0" transform="translate(-348.231 -579.524)" fill="#5a6a87"/>
    </g>
  </g>
</svg>
