<svg xmlns="http://www.w3.org/2000/svg" viewBox="0 0 100 100"><defs><style>.cls-1{fill:#ffca28;}.cls-2{fill:#fff;}.cls-3{fill:#e8a600;}.cls-4{fill:#afc3d8;}.cls-5{fill:#809fba;}</style></defs><title>icon-light-yellow</title><g id="圖層_2" data-name="圖層 2"><g id="圖層_1-2" data-name="圖層 1"><g id="icon-light-yellow"><path class="cls-1" d="M87.33,84.77H13.12V54c0-20.38,16.64-35.61,37.1-35.61S87.33,33.59,87.33,54Z"/><path class="cls-2" d="M25.65,51.08c-.49,2.06-3.84,1.39-3.84,1.39-1.83-.6-2.52-1.33-2.3-3.16,1.33-11,8.94-20.94,19.55-22.8a3.07,3.07,0,0,1,3.62,3h0a3.08,3.08,0,0,1-2.52,3C31.32,34.08,27.36,43.85,25.65,51.08Z"/><rect class="cls-2" x="19.3" y="58.92" width="6.18" height="6.16" rx="2.73"/><rect class="cls-3" x="13.12" y="72.45" width="74.22" height="12.32"/><path class="cls-4" d="M100,100H0V87.23c0-4.8,4.21-7.93,9.38-7.93H90.62c5.17,0,9.38,3.13,9.38,7.93Z"/><rect class="cls-5" y="94.19" width="100" height="5.81"/><rect class="cls-1" x="37.69" y="0.07" width="6.25" height="12.89" rx="3.12" transform="matrix(0.97, -0.26, 0.26, 0.97, -0.3, 10.78)"/><rect class="cls-1" x="19.7" y="6.25" width="6.25" height="12.89" rx="3.12" transform="translate(-2.82 17.64) rotate(-40)"/><rect class="cls-1" x="8.98" y="16.27" width="6.25" height="12.89" rx="3.12" transform="translate(-13.62 21.84) rotate(-60)"/><rect class="cls-1" x="3.12" y="28.46" width="6.25" height="12.89" rx="3.12" transform="translate(-28.69 28.84) rotate(-70)"/><rect class="cls-1" x="55.43" y="-0.11" width="6.25" height="12.89" rx="3.12" transform="translate(3.63 -14.94) rotate(15)"/><rect class="cls-1" x="72.68" y="6.25" width="6.25" height="12.89" rx="3.12" transform="translate(25.89 -45.76) rotate(40)"/><rect class="cls-1" x="84.45" y="16.27" width="6.25" height="12.89" rx="3.12" transform="matrix(0.5, 0.87, -0.87, 0.5, 63.46, -64.48)"/><rect class="cls-1" x="89.42" y="28.46" width="6.25" height="12.89" rx="3.12" transform="translate(93.69 -63.99) rotate(70)"/></g></g></g></svg>